<svg width="35" height="35" viewBox="0 0 35 35" fill="none" xmlns="http://www.w3.org/2000/svg">
<path d="M11.9881 3.88738C13.5627 4.84876 14.1352 6.77152 13.2764 8.35093M18 3.40669C17.7853 1.96462 16.4255 0.93457 14.9225 1.00324C13.348 0.93457 11.9881 2.10196 11.9166 3.6127C11.9166 3.68137 11.9166 3.81871 11.9166 3.88738C10.9146 3.33802 9.69791 3.40669 8.69593 4.02472C7.62239 4.64275 7.1214 5.81014 7.33611 6.97753C6.54884 6.90886 5.76157 7.11487 5.11744 7.52689C3.75762 8.28226 3.3282 9.99902 4.11547 11.3037C3.25663 11.6471 2.6125 12.2651 2.32622 13.0892C1.89681 14.0505 2.11152 15.1493 2.75564 15.9733C1.82524 16.3853 1.10954 17.278 1.03797 18.3081C0.82326 19.5442 1.53896 20.7802 2.68407 21.3296C1.6821 22.703 2.03995 24.6257 3.47134 25.5871C3.90076 25.8618 4.47332 26.0678 4.97431 26.1365C4.7596 26.8918 4.83117 27.6472 5.18901 28.3339C5.76157 29.5013 7.04983 30.188 8.33808 29.982C8.33808 30.394 8.48122 30.806 8.62436 31.2181C9.26849 32.6601 10.9862 33.2782 12.4176 32.6601C12.4891 32.5915 12.6323 32.5228 12.7038 32.4541C13.348 33.7588 14.9941 34.3769 16.4255 33.7589C17.1412 33.4155 17.6422 32.7288 17.7853 31.9734H18V3.40669Z" stroke="#E7F0DC" stroke-width="1.5" stroke-linecap="round" stroke-linejoin="round"/>
<path d="M13.07 12.4362C12.1795 13.3316 10.7409 13.3316 9.85037 12.4362C8.95982 11.5408 8.95982 10.0945 9.85037 9.19908M10.1929 18.084C11.2889 17.4641 12.659 17.8085 13.3441 18.9105C13.9606 20.0125 13.6181 21.3901 12.522 22.0788H12.4535M3.13701 16.0178C3.13701 16.0178 6.28818 18.084 7.24723 14.9846M3 21.3901C3 21.3901 6.28818 18.4973 7.86376 22.4232M8.5488 29.9995C10.0559 29.9306 11.2204 28.6909 11.2204 27.1756C11.2204 26.969 11.2204 26.8312 11.1519 26.6246M17.7283 25.0405C17.7283 25.0405 16.2212 23.1808 14.3031 25.0405M15.3992 9.68121C15.3992 9.68121 16.0157 11.7475 17.7283 11.1276M23.4826 3.89566C23.4826 3.82679 23.4826 3.68904 23.4826 3.62016C23.4141 2.1049 22.1125 0.934014 20.6054 1.00289C19.1669 1.00289 17.9338 1.96715 17.7283 3.41353V31.9969H17.7968C18.0023 32.7545 18.4818 33.4433 19.1669 33.7877C20.5369 34.3387 22.1125 33.7877 22.7291 32.479C22.7976 32.5479 22.9346 32.6168 23.0031 32.6856C24.3731 33.3055 26.0172 32.6856 26.6338 31.2393C26.7708 30.826 26.9078 30.4127 26.9078 29.9995C28.2094 30.2061 29.4424 29.5174 29.9904 28.3465C30.333 27.6577 30.4015 26.9001 30.196 26.1425C30.6755 26.0736 31.2235 25.867 31.6345 25.5915C33.0046 24.6272 33.3471 22.6987 32.3881 21.3212C33.4841 20.7702 34.1692 19.5304 33.9637 18.2907C33.8952 17.2575 33.2101 16.3621 32.3196 15.9489C32.9361 15.1224 33.1416 14.0204 32.7306 13.0561C32.4566 12.2296 31.84 11.6097 31.018 11.2653C31.7715 9.95671 31.292 8.23482 29.9904 7.47719C29.3739 7.06394 28.6204 6.85731 27.8668 6.99506C28.0723 5.82418 27.5928 4.65329 26.5653 4.03341C25.6062 3.41353 24.4416 3.34466 23.4826 3.89566ZM23.4826 3.89566C21.9755 4.85992 21.4275 6.78844 22.2495 8.37257" stroke="#E7F0DC" stroke-width="1.5" stroke-linecap="round" stroke-linejoin="round"/>
<path d="M22.7442 12.1126C23.6512 12.9735 25.1163 12.9735 26.0233 12.1126C26.9302 11.2517 26.9302 9.86093 26.0233 9M25.6744 17.543C24.5581 16.947 23.1628 17.3444 22.5349 18.404C21.907 19.4636 22.3256 20.7881 23.3721 21.3841M32.8605 15.5563C32.8605 15.5563 29.6512 17.543 28.6744 14.5629M33 20.7219C33 20.7219 29.6512 17.9404 28.0465 21.7152M27.3488 29C25.814 28.9338 24.6279 27.7417 24.6279 26.2848C24.6279 26.0861 24.6279 25.9536 24.6977 25.755M18 24.2318C18 24.2318 19.5349 22.4437 21.4884 24.2318M20.3721 9.46358C20.3721 9.46358 19.7442 11.4503 18 10.8543" stroke="#E7F0DC" stroke-width="1.5" stroke-linecap="round" stroke-linejoin="round"/>
</svg>
