<svg width="22" height="31" viewBox="0 0 22 31" fill="none" xmlns="http://www.w3.org/2000/svg">
<path fill-rule="evenodd" clip-rule="evenodd" d="M11.0384 30C5.62391 30 1 29.1222 1 25.6069C1 22.0915 5.59457 18.8462 11.0384 18.8462C16.4531 18.8462 21.0769 22.06 21.0769 25.5755C21.0769 29.0894 16.4824 30 11.0384 30Z" stroke="#E7F0DC" stroke-width="1.5" stroke-linecap="round" stroke-linejoin="round"/>
<path fill-rule="evenodd" clip-rule="evenodd" d="M11.0391 13.2692C14.7352 13.2692 17.7308 10.5232 17.7308 7.13523C17.7308 3.74725 14.7352 1 11.0391 1C7.34323 1 4.34623 3.74725 4.34623 7.13523C4.33375 10.5118 7.30857 13.2578 10.992 13.2692C11.0086 13.2692 11.0239 13.2692 11.0391 13.2692Z" stroke="#E7F0DC" stroke-width="1.5" stroke-linecap="round" stroke-linejoin="round"/>
</svg>
